{"version":"2.6.6","zoom":1.0,"gridOffset":[0.0,0.0],"modules":[{"id":1,"plugin":"Core","model":"MIDIToCVInterface","version":"2.6.6","params":[],"data":{"midi":{"driver":2,"deviceName":"14:0"}},"pos":[0,0]},{"id":2,"plugin":"Fundamental","model":"VCO","version":"2.6.4","params":[{"id":1,"value":1.0},{"id":2,"value":0.0},{"id":4,"value":0.35},{"id":5,"value":0.65},{"id":6,"value":0.0},{"id":7,"value":0.0}],"pos":[15,0]},{"id":3,"plugin":"Fundamental","model":"ADSR","version":"2.6.4","params":[{"id":0,"value":0.01},{"id":1,"value":0.08},{"id":2,"value":0.7},{"id":3,"value":0.25},{"id":4,"value":0.0},{"id":5,"value":0.0},{"id":6,"value":0.0},{"id":7,"value":0.0},{"id":8,"value":0.0}],"pos":[30,0]},{"id":4,"plugin":"Fundamental","model":"VCA-1","version":"2.6.4","params":[{"id":0,"value":1.0}],"pos":[45,0]},{"id":5,"plugin":"Core","model":"AudioInterface2","version":"2.6.6","params":[{"id":0,"value":1.0}],"data":{"audio":{"driver":4,"deviceName":"system","sampleRate":48000.0,"blockSize":256,"inputOffset":0,"outputOffset":0},"dcFilter":false},"pos":[60,0]}],"cables":[{"id":1,"outputModuleId":1,"outputId":0,"inputModuleId":2,"inputId":0,"color":"#0986ad","inputPlugOrder":1,"outputPlugOrder":2},{"id":2,"outputModuleId":1,"outputId":1,"inputModuleId":3,"inputId":4,"color":"#c9b70e","inputPlugOrder":3,"outputPlugOrder":4},{"id":3,"outputModuleId":2,"outputId":2,"inputModuleId":4,"inputId":1,"color":"#f3374b","inputPlugOrder":5,"outputPlugOrder":6},{"id":4,"outputModuleId":3,"outputId":0,"inputModuleId":4,"inputId":0,"color":"#8b4ade","inputPlugOrder":7,"outputPlugOrder":8},{"id":5,"outputModuleId":4,"outputId":0,"inputModuleId":5,"inputId":0,"color":"#f3374b","inputPlugOrder":9,"outputPlugOrder":10},{"id":6,"outputModuleId":4,"outputId":0,"inputModuleId":5,"inputId":1,"color":"#f3374b","inputPlugOrder":11,"outputPlugOrder":12}],"masterModuleId":5}
